<?xml version="1.0" encoding="UTF-8"?>
<svg id="Layer_2" data-name="Layer 2" xmlns="http://www.w3.org/2000/svg" viewBox="0 0 1767.34 1767.34">
  <defs>
    <style>
      .cls-1 {
        fill: #fff;
      }

      .cls-2 {
        fill: transparent;
      }
    </style>
  </defs>
  <g id="Layer_2-2" data-name="Layer 2">
    <g>
      <path class="cls-1" d="M1114.8,1158.76c3.73,9.29,8.31,17.56,13.61,24.59,4.89,6.51,10.41,11.59,16.43,15.11,5.48,3.21,11.43,4.77,18.21,4.77,11,0,20.5-2.48,29.05-7.58,9.16-5.47,17.49-13.03,24.75-22.48,7.58-9.85,13.9-21.07,18.79-33.38,5.04-12.73,8.94-26.19,11.57-40,2.64-13.84,3.97-27.39,3.97-40.29,0-14.2-1.44-28.27-4.27-41.82-2.77-13.17-6.94-25.16-12.4-35.64-5-9.56-11.43-17.23-19.13-22.77-7.1-5.1-15.21-7.59-24.79-7.59-13.86,0-25.57,3.55-35.78,10.85-10.87,7.78-20.12,18.27-27.49,31.15-7.7,13.49-13.58,29.02-17.47,46.15-3.97,17.5-5.98,35.47-5.98,53.42,0,12.11.89,23.89,2.64,35.01,1.69,10.79,4.48,21.05,8.28,30.49ZM1119.62,1042.06c3.67-16.17,9.19-30.77,16.4-43.4,6.74-11.79,14.79-20.94,24.62-27.97,8.46-6.05,18.26-8.98,29.97-8.98,7.51,0,13.54,1.82,18.94,5.7,6.51,4.69,11.78,11,16.1,19.27,5.04,9.67,8.9,20.8,11.48,33.07,2.69,12.88,4.06,26.26,4.06,39.77,0,12.27-1.28,25.19-3.8,38.42-2.51,13.19-6.23,26.04-11.04,38.18-4.55,11.44-10.41,21.86-17.42,30.97-6.5,8.44-13.88,15.17-21.95,19.99-6.96,4.15-14.79,6.17-23.93,6.17-5.02,0-9.2-1.08-13.16-3.4-4.86-2.84-9.39-7.04-13.49-12.49-4.77-6.33-8.91-13.83-12.32-22.31-3.52-8.74-6.1-18.25-7.68-28.31-1.67-10.6-2.52-21.86-2.52-33.45,0-17.2,1.93-34.43,5.74-51.2Z"/>
      <path class="cls-1" d="M1422.82,306.91l-16.2,31.97,27.71-22.73c10.11-8.29,24.15-9.82,35.81-3.92l31.97,16.2-22.73-27.71c-8.29-10.11-9.82-24.15-3.92-35.81l16.2-31.97-27.71,22.73c-10.11,8.29-24.15,9.82-35.81,3.92l-31.97-16.2,22.73,27.71c8.29,10.11,9.82,24.15,3.92,35.81Z"/>
      <path class="cls-1" d="M422.84,417.97l-15.82,29.55,26.39-20.67c9.62-7.54,22.79-8.68,33.57-2.91l29.55,15.82-20.67-26.39c-7.54-9.62-8.68-22.79-2.91-33.57l15.82-29.55-26.39,20.67c-9.62,7.54-22.79,8.68-33.57,2.91l-29.55-15.82,20.67,26.39c7.54,9.62,8.68,22.79,2.91,33.57Z"/>
      <path class="cls-1" d="M281.67,308.78l1.74,25.96,8.87-24.46c3.23-8.92,11.43-15.09,20.9-15.72l25.96-1.74-24.46-8.87c-8.92-3.23-15.09-11.43-15.72-20.9l-1.74-25.96-8.87,24.46c-3.23,8.92-11.43,15.09-20.9,15.72l-25.96,1.74,24.46,8.87c8.92,3.23,15.09,11.43,15.72,20.9Z"/>
      <path class="cls-1" d="M1492.29,522.4l-11.13,30.85c-4.06,11.25-14.38,19.04-26.31,19.86l-32.72,2.25,30.85,11.13c11.25,4.06,19.04,14.38,19.86,26.31l2.25,32.72,11.13-30.85c4.06-11.25,14.38-19.04,26.31-19.86l32.72-2.25-30.85-11.13c-11.25-4.06-19.04-14.38-19.86-26.31l-2.25-32.72Z"/>
      <path class="cls-1" d="M339.24,484.45l19.93-16.84-25.03,7.38c-9.13,2.69-18.98-.26-25.12-7.53l-16.84-19.93,7.38,25.03c2.69,9.13-.26,18.98-7.53,25.12l-19.93,16.84,25.03-7.38c9.13-2.69,18.98.26,25.12,7.53l16.84,19.93-7.38-25.03c-2.69-9.13.26-18.98,7.53-25.12Z"/>
      <path class="cls-1" d="M372.38,1156.57c3.98-8.56,12.64-13.96,22.08-13.76l25.88.53-23.47-10.91c-8.56-3.98-13.96-12.64-13.76-22.08l.53-25.88-10.91,23.47c-3.98,8.56-12.64,13.96-22.08,13.76l-25.88-.53,23.47,10.91c8.56,3.98,13.96,12.64,13.76,22.08l-.53,25.88,10.91-23.47Z"/>
      <path class="cls-1" d="M278.17,1064.08l16.63-20.68c6.06-7.54,16.01-10.79,25.35-8.27l25.62,6.89-20.68-16.63c-7.54-6.06-10.79-16.01-8.27-25.35l6.89-25.62-16.63,20.68c-6.06,7.54-16.01,10.79-25.35,8.27l-25.62-6.89,20.68,16.63c7.54,6.06,10.79,16.01,8.27,25.35l-6.89,25.62Z"/>
      <path class="cls-1" d="M1266.18,516.85l33.93-14.23c12.37-5.19,26.65-2.58,36.38,6.66l26.7,25.32-14.23-33.93c-5.19-12.37-2.58-26.65,6.66-36.38l25.32-26.7-33.93,14.23c-12.37,5.19-26.65,2.58-36.38-6.66l-26.7-25.32,14.23,33.93c5.19,12.37,2.58,26.65-6.66,36.38l-25.32,26.7Z"/>
      <path class="cls-1" d="M1490.35,1456.79l-13.09-17.65,4.87,21.43c1.78,7.82-1.23,15.94-7.67,20.72l-17.65,13.09,21.43-4.87c7.82-1.78,15.94,1.23,20.72,7.67l13.09,17.65-4.87-21.43c-1.78-7.82,1.23-15.94,7.67-20.72l17.65-13.09-21.43,4.87c-7.82,1.78-15.94-1.23-20.72-7.67Z"/>
      <path class="cls-1" d="M1456.38,721.89c-31.21-39.46-70.3-70.59-116.21-92.52-25.03-11.95-52.19-20.67-81.23-26.13,2.45,3.78,4.7,7.63,6.69,11.54,24.98,5.34,48.45,13.22,70.23,23.62,44.52,21.26,82.42,51.44,112.67,89.7,30,37.94,53.1,83.73,68.66,136.1,15.41,51.92,23.22,109.89,23.22,172.33,0,52.71-4.22,105.47-12.55,156.81-8.39,51.63-21.88,100.68-40.1,145.78-18.47,45.69-43.37,86.42-74.02,121.03-30.96,34.97-69.28,62.82-113.89,82.75-44.61,19.93-97.53,30.03-157.29,30.03-45.06,0-86.29-7.5-122.57-22.3-36.23-14.77-68.6-35.75-96.21-62.33-6.33-6.08-12.41-12.46-18.27-19.09,3.7-4.19,7.24-8.49,10.63-12.88,6.09,7.01,12.45,13.72,19.08,20.09,26.1,25.13,56.72,44.96,91,58.94,34.29,13.99,73.43,21.08,116.34,21.08,57.42,0,108.08-9.62,150.55-28.6,42.45-18.97,78.88-45.42,108.27-78.62,29.4-33.21,53.31-72.33,71.08-116.28,17.76-43.96,30.92-91.82,39.11-142.24,8.19-50.47,12.34-102.34,12.34-154.17,0-60.84-7.58-117.24-22.54-167.63-14.96-50.35-37.09-94.28-65.79-130.57-28.67-36.26-64.62-64.87-106.84-85.04-17.96-8.57-37.17-15.34-57.52-20.3-.52,3.89-2.56,7.51-5.84,9.99-5.25,3.95-12.46,4.03-17.79.19-3.07-2.21-7.8-4.68-13.65-7.21,11.67,11.61,22.5,26.15,34.21,45.45,0,0,0,0,0,0,31.71,52.3,39.7,112.05,40.03,114.56.87,6.72-2.88,13.18-9.13,15.78-6.26,2.59-13.48.67-17.62-4.69-12.08-15.64-29.14-25.15-44.5-30.89,7.78,12.24,14.72,25.49,19.81,40.25,10.92,31.66,11.86,66.45,2.86,106.36-1.03,4.55-4.11,8.37-8.34,10.32-4.23,1.95-9.14,1.83-13.27-.34-3.5-1.84-7.17-3.88-11.04-6.04-45.88-25.55-83.71-40.83-118.06,12.91-28.14,44.01-38.8,72.29-47.53,126.09-2.09,12.88-4.02,26.52-6.07,40.96-6.59,46.52-13.41,94.61-26.53,121.91-7.17,14.92-19.16,27.9-34.67,37.53-6.87,4.26-16.23,8.78-22.85,10.45-4.01,1.74-8.06,3.29-12.14,4.64.04,2.09.06,4.19.06,6.31,0,44.99-8.55,85.74-25.41,121.13-16.98,35.64-42.64,66.12-76.26,90.62-33.15,24.15-74.97,42.71-124.31,55.16-48.69,12.28-106.23,18.51-171.04,18.51-44.66,0-87.69-3.9-127.88-11.59-40.48-7.76-76.98-19.36-108.5-34.48-32.44-15.55-58.4-35.57-77.17-59.47-19.46-24.78-29.33-54.09-29.33-87.13,0-29.4,4.32-53.87,12.84-72.72,8.61-19.07,19.58-34.03,32.6-44.46,12.72-10.17,26.3-17.39,40.36-21.46,13.53-3.91,25.92-5.9,36.83-5.9,28.32,0,55.3,5,80.19,14.86,22.16,8.78,45.11,17.96,68.22,27.29,20.28,8.2,41.52,12.36,63.14,12.36,14.33,0,27.92-.68,40.38-2.04,11.6-1.26,21.74-3.65,30.12-7.1,7.46-3.06,13.16-6.9,16.98-11.4,3.05-3.61,4.53-8.66,4.53-15.44,0-7.84-2.76-14.26-8.69-20.2-7.45-7.46-17.97-14.45-31.27-20.75-14.15-6.71-30.77-12.85-49.4-18.26l-.66-.21c-17.47-5.96-34.09-13.53-49.39-22.49-16.37-9.58-29.81-21.91-39.94-36.66-10.62-15.44-16.01-33.9-16.01-54.86,0-27.44,8.78-49.29,26.1-64.93,15.41-13.93,33.54-24.91,53.89-32.62l.13-.05c14.86-5.48,28.93-11.47,41.83-17.8,11.7-5.73,21.06-12.44,27.82-19.94,5.57-6.17,8.27-13.3,8.27-21.81,0-7.86-1.08-14.26-3.2-19.12-.89.03-1.75.08-2.59.15-2.71.21-5.43.61-8.16,1.16.05.06.1.11.14.17,1.42,1.85,3.81,6.59,3.81,17.64,0,6.08-1.75,10.74-5.7,15.11-5.9,6.54-14.24,12.48-24.8,17.66-12.59,6.18-26.35,12.03-40.89,17.4l-.21.08c-21.51,8.16-40.71,19.79-57.04,34.55-19.51,17.62-29.4,41.96-29.4,72.35,0,23.02,5.98,43.39,17.77,60.52,10.97,15.97,25.48,29.31,43.13,39.63,15.88,9.3,33.11,17.14,51.21,23.32l1.1.35c18.12,5.26,34.24,11.22,47.91,17.7,12.25,5.81,21.83,12.13,28.47,18.77,4.05,4.06,5.77,7.99,5.77,13.14,0,2.93-.38,6.86-2.17,8.97-2.77,3.26-7.18,6.16-13.15,8.61-7.51,3.09-16.73,5.25-27.39,6.4-12.11,1.31-25.33,1.98-39.3,1.98-20.32,0-40.3-3.91-59.39-11.63-23.13-9.33-46.1-18.52-68.28-27.31-26.07-10.33-54.28-15.56-83.87-15.56-11.85,0-25.18,2.12-39.61,6.29-15.34,4.44-30.08,12.26-43.84,23.26-14.27,11.43-26.2,27.63-35.46,48.15-9.24,20.44-13.73,45.57-13.73,76.84,0,35.33,10.59,66.73,31.47,93.31,19.73,25.12,46.88,46.09,80.71,62.31,32.3,15.49,69.63,27.36,110.95,35.29,40.81,7.81,84.47,11.77,129.76,11.77,65.63,0,124-6.33,173.48-18.81,50.58-12.76,93.56-31.86,127.75-56.77,12.91-9.41,24.69-19.67,35.31-30.75,5.82,6.55,11.86,12.87,18.13,18.9,28.53,27.47,61.97,49.13,99.37,64.39,37.48,15.29,79.99,23.04,126.35,23.04,61.17,0,115.46-10.4,161.36-30.9,45.93-20.52,85.39-49.2,117.3-85.25,31.41-35.47,56.91-77.16,75.81-123.91,18.5-45.79,32.2-95.56,40.7-147.92,8.42-51.87,12.68-105.17,12.68-158.41,0-63.4-7.95-122.33-23.64-175.18-15.92-53.59-39.61-100.51-70.4-139.46ZM1093.77,1036.19c4.25-18.72,10.72-35.77,19.23-50.68,8.55-14.96,19.39-27.2,32.22-36.39,12.93-9.24,28.19-13.93,45.38-13.93,12.96,0,24.55,3.6,34.43,10.7,9.8,7.06,17.91,16.66,24.12,28.53,6.15,11.81,10.83,25.23,13.91,39.89,3.07,14.66,4.62,29.87,4.62,45.2,0,13.93-1.43,28.52-4.26,43.37-2.82,14.83-7.01,29.3-12.44,43-5.45,13.73-12.53,26.29-21.04,37.35-8.54,11.1-18.42,20.05-29.38,26.59-11.02,6.57-23.64,9.91-37.5,9.91-9.66,0-18.59-2.36-26.54-7.03-7.92-4.63-15.08-11.17-21.28-19.43-6.17-8.19-11.46-17.73-15.73-28.35-4.27-10.6-7.39-22.07-9.27-34.08-1.89-11.96-2.84-24.61-2.84-37.58,0-19.17,2.15-38.37,6.39-57.07Z"/>
      <path class="cls-1" d="M351.25,921.07c15.25,0,33.59-2.39,56.04-7.3,20.25-4.42,42.24-8.76,65.36-12.92,10.4-1.87,20.73-3.29,30.93-4.28-.51-3.39-.94-6.7-1.3-9.92-10.36,1.02-20.84,2.46-31.39,4.36-23.23,4.17-45.34,8.54-65.72,12.99-21.44,4.69-39.58,7.07-53.91,7.07-39.34,0-70.33-13.25-92.1-39.38-21.09-25.31-31.78-54.97-31.78-88.18s10.01-59.68,29.75-82.68c18.83-21.92,44.59-40.16,76.59-54.22,31.1-13.66,66.95-23.9,106.56-30.44,21.04-3.48,42.73-6.02,64.88-7.64,2.09-3.56,4.36-7.06,6.79-10.49-25.07,1.59-49.59,4.35-73.3,8.26-40.43,6.68-77.09,17.16-108.96,31.16-33.37,14.67-60.34,33.8-80.15,56.86-21.34,24.86-32.16,54.87-32.16,89.19s11.47,67.43,34.1,94.58c23.75,28.52,57.33,42.98,99.78,42.98Z"/>
      <path class="cls-1" d="M630.24,1296.34c-9.82,4.04-21.47,6.82-34.63,8.25-13.05,1.42-27.23,2.13-42.16,2.13-23.74,0-47.06-4.56-69.31-13.56-23.07-9.31-45.99-18.48-68.12-27.25-22.95-9.09-47.88-13.7-74.11-13.7-9.36,0-20.21,1.77-32.25,5.25-11.97,3.46-23.62,9.68-34.63,18.49-10.97,8.79-20.35,21.7-27.88,38.38-7.55,16.7-11.38,38.88-11.38,65.92,0,29.25,8.68,55.14,25.81,76.94,17.2,21.9,41.2,40.33,71.33,54.79,30.24,14.51,65.39,25.66,104.47,33.15,39.17,7.5,81.15,11.3,124.78,11.3,63.45,0,119.63-6.06,167-18.01,47.28-11.93,87.19-29.59,118.63-52.49,31.37-22.86,55.29-51.25,71.08-84.38,15.8-33.15,23.81-71.52,23.81-114.03,0-.65-.01-1.28-.02-1.92-21.2,4.27-42.31,3.29-60.4-3.07-10.75,3.8-22.61,5.7-34.97,5.7-14.54,0-29.78-2.63-44.73-7.89-29.81-10.49-53.13-29.34-63.97-51.71-13.2-27.23-19.98-75.25-26.53-121.69-2.05-14.53-3.99-28.26-6.09-41.21-8.71-53.76-19.36-82.04-47.52-126.09-12.43-19.43-24.66-28.42-35.44-32.34,1.08,4.92,1.63,10.39,1.63,16.38,0,12.6-4.21,23.66-12.52,32.86-8.17,9.07-19.21,17.04-32.81,23.7-13.4,6.57-28,12.79-43.38,18.46-18.4,6.98-34.78,16.89-48.67,29.44-13.71,12.38-20.66,30.11-20.66,52.69,0,17.55,4.41,32.87,13.11,45.52,8.74,12.73,20.41,23.42,34.67,31.76,14.36,8.4,29.96,15.51,46.39,21.11,19.41,5.64,36.86,12.1,51.8,19.18,15.01,7.12,27.08,15.19,35.88,24.01,8.96,8.99,13.5,19.71,13.5,31.85,0,10.69-2.84,19.47-8.44,26.1-5.54,6.54-13.37,11.92-23.29,15.99Z"/>
      <path class="cls-1" d="M485.9,807.06c-4.14,5.36-11.36,7.28-17.61,4.69-6.26-2.59-10-9.06-9.13-15.77.32-2.52,8.31-62.27,40.02-114.56,11.61-19.14,22.36-33.6,33.91-45.15-5.73,2.39-10.35,4.75-13.34,6.91-5.33,3.84-12.54,3.76-17.79-.19-5.25-3.95-7.31-10.86-5.09-17.05.02-.07.05-.13.08-.2-18.39,1.58-36.42,3.82-53.98,6.72-38.25,6.32-72.78,16.17-102.61,29.27-29.71,13.06-53.5,29.83-70.7,49.86-17.1,19.92-25.77,44.12-25.77,71.93,0,29.24,9.41,55.35,27.96,77.61,18.48,22.19,45.2,33.44,79.42,33.44,13.14,0,30.09-2.25,50.39-6.69,20.57-4.49,42.89-8.9,66.32-13.11,11.09-1.99,22.11-3.51,33.01-4.57-1.86-43.5,10.34-70.06,26.53-92.9-14.56,5.83-30.27,15.1-41.59,29.77Z"/>
      <path class="cls-1" d="M510.98,631c21.7-15.62,90.8-31.62,108.55-25.88-54.02,18.79-77.1,33.91-107.53,84.08-30.43,50.18-37.97,108.7-37.97,108.7,32.07-41.52,91.86-45.22,91.86-45.22-33.19,42.37-65.76,68.73-42.07,169.53,35.6-18.7,97.96-67.79,147.28,9.35,30.48,47.69,40.97,77.95,49.68,131.76,8.82,54.3,15.27,125.67,31.32,158.77,18.87,38.94,85.62,63.89,130.17,44.33,25.29,11.04,57.68,7.78,84.4-4.2-.45.64,33.78-9.23,48.61-40.13,15.94-33.15,22.5-104.47,31.32-158.77,8.73-53.82,19.2-84.08,49.7-131.76,49.3-77.14,113.12-30.78,148.72-12.07,18.42-81.74-10.34-124.45-43.53-166.81,0,0,59.8,3.7,91.86,45.22,0,0-7.54-58.52-37.97-108.7-30.43-50.17-53.53-65.29-107.51-84.08,12.6-9.7,86.84,10.26,108.54,25.88-10.74-29.93-46.36-62.93-72.1-81.3,74.09-104.47,78.96-285.11,43.28-332.45-42.51-56.42-72.27-23.2-109.05,12.85-65.76,64.48-100.29,111.24-136.51,134.11-1.29-1.15-6.66-67.87-47.58-88.85,5.67,22.3,7.75,41.81,4.42,63.36-8.45-17.08-21.63-32-29.51-49.81-8.67-19.58-16.36-32.29-30.03-54.16-.77,28.33-13.55,89.17-37.57,103.95,5.45-16.43,4.1-43.78-7.13-56.59-2.11,18.77-6.98,33.38-16.19,47.34-5.04,7.63-26.08,28.42-33.02,34.75-36.23-22.87-70.76-69.63-136.52-134.11-36.79-36.05-66.55-69.27-109.05-12.85-35.7,47.34-30.8,227.98,43.29,332.45-25.76,18.38-61.38,51.37-72.12,81.3ZM765.07,749.04c-24.61,1.36-40.12,29.41-18.84,47.86-21.28-3.86-44.28-21.11-54.74-36.32-14.59-21.18-14.91-26.59-39.3-33.67l3.09-3.08c63.9-11.57,182.38-5.27,168.69,82.65-13.55.55-35.67,1.14-47.39-6.15,21.86-10.94,19.87-48.55-11.53-51.29ZM777.95,842.02s38.04,1.07,47.83,4.29c5,27.16,10.39,89.35-15.47,146.2-5.29-26.81,9.1-62.96-5.92-125.87-2.12-8.9-22.33-13.67-26.43-24.61ZM960.99,866.63c-15.02,62.91,1.35,99.06-3.93,125.87-25.88-56.85-20.51-119.04-15.49-146.2,9.79-3.22,47.83-4.29,47.83-4.29-4.1,10.94-26.26,15.71-28.41,24.61ZM1073.98,760.58c-10.44,15.21-33.46,32.46-54.74,36.32,21.28-18.44,5.77-46.5-18.82-47.86-31.43,2.74-33.39,40.35-11.54,51.29-11.73,7.28-33.83,6.7-47.38,6.15-13.72-87.92,104.77-94.22,168.67-82.65l3.09,3.08c-24.39,7.08-24.72,12.49-39.3,33.67ZM1039.03,532.92c73.3-8.04,66.76-131.73,79.24-188.77,6.47-29.55,39.21-152.72,86.77-108.76,7.85,7.25,13.42,18.53,13.42,18.53-1.44,25.06-25.58,7.59-38.88,31.62-2.53,4.58-18.27,24.42-23.74,66.82-2.73,12.31-4.72,21.44-1.79,30.26,5.82,17.62,35.26,18.98,57.13,5.3.92,16.55-15.12,46.59-23.22,61.55-9.55,17.72-48.31,46.09-69.57,51.11-13.32,20.53-34.98,33.36-70.19,35.39-4.28.46-8.82.55-13.67.24,4.53,0,.17-3.07,4.5-3.31ZM1126.66,674.6l-7.29-2.84c-64.69-34.98-125.92-33.74-182.41-4.32,13.75-104.57,151.43-38.13,189.7,7.16ZM866.83,1137.75c4.99-.71,10.05-.76,15.24-.19.59-.05,1.15-.09,1.74-.14v-.05l.3.03.3-.03v.05c.59.05,1.15.09,1.74.14,5.19-.57,10.25-.52,15.24.19,24.46.19,47.84,1.5,63.45,22.25,15.32,20.39,7.91,59-22.67,50.32,39.21-46.38-69.46-42.07-11.89,13.78-16.83,9.14-31.3,13.45-45.87,13.07h-.6c-.59.02-1.17.02-1.76.02-13.97,0-27.95-4.31-44.11-13.09,57.58-55.85-51.12-60.16-11.89-13.78-30.58,8.68-37.99-29.93-22.65-50.32,15.59-20.75,38.98-22.06,63.44-22.25ZM830.39,667.44c-56.49-29.41-117.72-30.65-182.43,4.32l-7.28,2.84c38.26-45.29,175.95-111.74,189.7-7.16ZM579.4,449.48c-8.11-14.97-24.16-45-23.24-61.55,21.86,13.67,51.31,12.31,57.13-5.3,2.93-8.82.94-17.95-1.79-30.26-5.47-42.4-21.2-62.24-23.74-66.82-13.3-24.02-37.44-6.56-38.86-31.62,0,0,4.82-12.23,13.4-18.53,54.28-39.89,80.3,79.2,86.77,108.76,12.48,57.04,5.94,180.73,79.24,188.77,4.33.24-.03,3.31,4.5,3.31-4.85.31-9.38.22-13.65-.24-35.23-2.03-56.88-14.86-70.19-35.39-21.28-5.03-60.04-33.39-69.57-51.11Z"/>
    </g>
  </g>
</svg>
