<?xml version="1.0" encoding="UTF-8" standalone="no"?>
<!DOCTYPE svg PUBLIC "-//W3C//DTD SVG 1.1//EN" "http://www.w3.org/Graphics/SVG/1.1/DTD/svg11.dtd">
<svg width="100%" height="100%" viewBox="0 0 1024 1024" version="1.1" xmlns="http://www.w3.org/2000/svg" xmlns:xlink="http://www.w3.org/1999/xlink" xml:space="preserve" xmlns:serif="http://www.serif.com/" style="fill-rule:evenodd;clip-rule:evenodd;stroke-linecap:round;stroke-linejoin:round;stroke-miterlimit:1.5;">
    <g id="android-final" transform="matrix(11.4627,0,0,11.4627,-110.458,-197.537)">
        <g transform="matrix(0.78244,0,0,0.78244,9.11995,17.0021)">
            <g transform="matrix(1,0,0,1,72.3232,65.5859)">
                <path d="M0,-6.807L1.753,-5.054L1.753,-2.565L3.437,-2.565L4.794,-3.922C3.966,-5.634 6.974,-6.356 7.012,-4.451C7.033,-3.597 6.057,-3.002 5.31,-3.405L3.739,-1.834L1.753,-1.834L1.753,0L5.564,0L12.372,-6.807L0,-6.807Z" style="fill:rgb(255,255,255);fill-rule:nonzero;"/>
            </g>
            <g transform="matrix(1,0,0,1,75.6568,54.4583)">
                <path d="M0,-7.17L-3.59,-10.76L-3.59,-5.408L-5.845,-3.151L0.896,3.59L2.701,3.59L5.949,0.342L5.949,-6.439L0,-0.49L0,-7.17Z" style="fill:rgb(255,255,255);fill-rule:nonzero;"/>
            </g>
            <g transform="matrix(1,0,0,1,70.2906,66.3168)">
                <path d="M0,9.731L9.731,0L3.571,0L-0.92,4.492L-2.873,4.492L-0.541,6.826L-0.541,9.191L0,9.731Z" style="fill:rgb(255,255,255);fill-rule:nonzero;"/>
            </g>
            <g transform="matrix(1,0,0,1,71.5463,46.1992)">
                <path d="M0,-20.386L0,-7.777C-0.751,-8.16 -3.096,-11.976 -4.09,-10.411L-1.678,-7.999L-1.678,-6.574L-4.231,-9.128L-4.231,-8.229L-1.678,-5.676L-1.678,-3.275L-4.231,-5.829L-4.231,-4.796L-1.678,-2.243L-1.678,-0.817L-4.231,-3.371L-4.231,2.611L-2.251,4.592L-0.21,2.549L-0.21,-4.264L4.841,0.787L4.841,6.005L6.955,3.891L6.955,-0.466L3.984,-3.437L3.984,-9.215L3.534,-9.665C1.821,-8.838 1.1,-11.845 3.005,-11.884C3.859,-11.905 4.453,-10.928 4.05,-10.182L4.714,-9.517L4.714,-3.74L6.955,-1.499C7.439,-10.203 6.553,-19.948 0,-26.391L0,-21.419L3.153,-18.266L3.153,-15.726L4.046,-14.834C5.758,-15.662 6.48,-12.654 4.574,-12.616C3.72,-12.594 3.126,-13.571 3.529,-14.318L2.423,-15.424L2.423,-17.963L0,-20.386Z" style="fill:rgb(255,255,255);fill-rule:nonzero;"/>
            </g>
            <g transform="matrix(1,0,0,1,58.0183,49.788)">
                <path d="M0,10.6C1.838,10.91 4.57,6.981 5.805,6.038L11.352,6.038L13.574,8.26L17.502,8.26L8.931,-0.31L0.077,8.545L0,8.467L0,10.6Z" style="fill:rgb(255,255,255);fill-rule:nonzero;"/>
            </g>
            <g transform="matrix(1,0,0,1,62.6157,61.1433)">
                <path d="M0,5.6L0,0.953L0.731,0.953L0.731,3.466L4.677,-0.48L7.99,2.832L5.224,5.6L0,5.6ZM-4.597,6.357C-2.961,6.163 -1.566,7.891 -0.523,8.935L6.452,8.935L6.958,8.429L6.022,7.494L6.539,6.977L7.474,7.913L7.664,7.723L6.728,6.788L7.245,6.271L8.18,7.206L8.37,7.017L7.434,6.081L7.951,5.565L8.886,6.5L9.076,6.311L8.141,5.375L8.657,4.859L9.593,5.794L9.782,5.604L8.847,4.669L9.364,4.153L10.299,5.088L10.73,4.657L10.73,-0.309L6.452,-4.587L1.51,-4.587C0.058,-3.406 -2.408,0.277 -4.597,-0.025L-4.597,6.357Z" style="fill:rgb(255,255,255);fill-rule:nonzero;"/>
            </g>
            <g transform="matrix(1,0,0,1,69.7739,75.1775)">
                <path d="M0,1.387L-0.755,0.634L-0.755,-1.733L-3.389,-4.369L-5.612,-4.369L-7.964,-2.019L-7.964,-0.063L-6.793,1.108L-5.401,-0.285C-6.228,-1.997 -3.221,-2.718 -3.182,-0.814C-3.161,0.04 -4.138,0.635 -4.884,0.232L-6.277,1.624L-5.485,2.416L-5.485,4.641L-4.368,5.756L0,1.387Z" style="fill:rgb(255,255,255);fill-rule:nonzero;"/>
            </g>
            <g transform="matrix(1,0,0,1,58.0183,57.2225)">
                <path d="M0,-18.693L0,0L0.077,0.077L1.143,-0.988L1.143,-4.592L1.873,-4.592L1.873,-1.719L2.606,-2.451L2.606,-6.057L3.336,-6.057L3.336,-3.182L4.068,-3.914L4.068,-7.522L4.799,-7.522L4.799,-4.644L5.531,-5.377L5.531,-8.988L6.262,-8.988L6.262,-6.107L6.994,-6.84L6.994,-10.452L7.725,-10.452L7.725,-7.57L8.566,-8.412L8.566,-13.134L6.162,-15.537L6.162,-12.686L0.077,-18.77L0,-18.693Z" style="fill:rgb(255,255,255);fill-rule:nonzero;"/>
            </g>
            <g transform="matrix(1,0,0,1,62.868,91.4121)">
                <path d="M0,-2.996L-2.469,-2.996L0,-5.465L0,-2.996ZM2.552,-4.423L-1.423,-8.398L-4.772,-5.049L-4.85,-5.127L-4.85,5.325L-4.772,5.402L2.552,-1.922L2.552,-4.423Z" style="fill:rgb(255,255,255);fill-rule:nonzero;"/>
            </g>
            <g transform="matrix(1,0,0,1,61.8101,85.5079)">
                <path d="M0,-9.36L0,-3.162L3.162,0L3.162,-3.975L1.748,-5.387L1.748,-7.611L0,-9.36Z" style="fill:rgb(255,255,255);fill-rule:nonzero;"/>
            </g>
            <g transform="matrix(1,0,0,1,58.0183,68.1035)">
                <path d="M0,17.149L0.077,17.226L3.061,14.243L3.061,4.752L5.11,2.705L3.772,2.705C2.824,1.842 1.466,-0.077 0,0.127L0,17.149Z" style="fill:rgb(255,255,255);fill-rule:nonzero;"/>
            </g>
            <g transform="matrix(1,0,0,1,74.1089,35.4885)">
                <path d="M0,0C-0.008,0.574 0.893,0.574 0.884,0C0.892,-0.574 -0.008,-0.574 0,0" style="fill:rgb(255,255,255);fill-rule:nonzero;"/>
            </g>
            <g transform="matrix(1,0,0,1,76.5631,32.4112)">
                <path d="M0,-0.001C0.008,-0.574 -0.893,-0.574 -0.885,-0.001C-0.893,0.573 0.008,0.573 0,-0.001" style="fill:rgb(255,255,255);fill-rule:nonzero;"/>
            </g>
            <g transform="matrix(1,0,0,1,65.8609,74.3638)">
                <path d="M0,0C0.008,-0.573 -0.893,-0.574 -0.884,0C-0.892,0.574 0.008,0.574 0,0" style="fill:rgb(255,255,255);fill-rule:nonzero;"/>
            </g>
            <g transform="matrix(1,0,0,1,78.6045,61.1353)">
                <path d="M0,0C0.008,-0.574 -0.892,-0.574 -0.884,0C-0.892,0.573 0.008,0.574 0,0" style="fill:rgb(255,255,255);fill-rule:nonzero;"/>
            </g>
            <g transform="matrix(1,0,0,1,43.0258,65.5859)">
                <path d="M0,-6.807L-1.753,-5.054L-1.753,-2.565L-3.437,-2.565L-4.794,-3.922C-3.966,-5.634 -6.974,-6.356 -7.012,-4.451C-7.033,-3.597 -6.057,-3.002 -5.31,-3.405L-3.739,-1.834L-1.753,-1.834L-1.753,0L-5.564,0L-12.372,-6.807L0,-6.807Z" style="fill:rgb(255,255,255);fill-rule:nonzero;"/>
            </g>
            <g transform="matrix(1,0,0,1,39.6923,54.4583)">
                <path d="M0,-7.17L3.59,-10.76L3.59,-5.408L5.845,-3.151L-0.896,3.59L-2.701,3.59L-5.949,0.342L-5.949,-6.439L0,-0.49L0,-7.17Z" style="fill:rgb(255,255,255);fill-rule:nonzero;"/>
            </g>
            <g transform="matrix(1,0,0,1,45.0585,66.3168)">
                <path d="M0,9.731L-9.731,0L-3.571,0L0.92,4.492L2.873,4.492L0.541,6.826L0.541,9.191L0,9.731Z" style="fill:rgb(255,255,255);fill-rule:nonzero;"/>
            </g>
            <g transform="matrix(1,0,0,1,43.8027,46.1992)">
                <path d="M0,-20.386L0,-7.777C0.751,-8.16 3.096,-11.976 4.09,-10.411L1.678,-7.999L1.678,-6.574L4.231,-9.128L4.231,-8.229L1.678,-5.676L1.678,-3.275L4.231,-5.829L4.231,-4.796L1.678,-2.243L1.678,-0.817L4.231,-3.371L4.231,2.611L2.251,4.592L0.21,2.549L0.21,-4.264L-4.841,0.787L-4.841,6.005L-6.955,3.891L-6.955,-0.466L-3.984,-3.437L-3.984,-9.215L-3.534,-9.665C-1.821,-8.838 -1.1,-11.845 -3.005,-11.884C-3.859,-11.905 -4.453,-10.928 -4.05,-10.182L-4.714,-9.517L-4.714,-3.74L-6.955,-1.499C-7.439,-10.203 -6.553,-19.948 0,-26.391L0,-21.419L-3.153,-18.266L-3.153,-15.726L-4.046,-14.834C-5.758,-15.662 -6.48,-12.654 -4.574,-12.616C-3.72,-12.594 -3.126,-13.571 -3.529,-14.318L-2.423,-15.424L-2.423,-17.963L0,-20.386Z" style="fill:rgb(255,255,255);fill-rule:nonzero;"/>
            </g>
            <g transform="matrix(1,0,0,1,57.3308,49.788)">
                <path d="M0,10.6C-1.838,10.91 -4.57,6.981 -5.805,6.038L-11.352,6.038L-13.574,8.26L-17.502,8.26L-8.931,-0.31L-0.077,8.545L0,8.467L0,10.6Z" style="fill:rgb(255,255,255);fill-rule:nonzero;"/>
            </g>
            <g transform="matrix(1,0,0,1,52.7333,61.1433)">
                <path d="M0,5.6L0,0.953L-0.731,0.953L-0.731,3.466L-4.677,-0.48L-7.99,2.832L-5.224,5.6L0,5.6ZM4.597,6.357C2.961,6.163 1.566,7.891 0.523,8.935L-6.452,8.935L-6.958,8.429L-6.022,7.494L-6.539,6.977L-7.474,7.913L-7.664,7.723L-6.728,6.788L-7.245,6.271L-8.18,7.206L-8.37,7.017L-7.434,6.081L-7.951,5.565L-8.886,6.5L-9.076,6.311L-8.141,5.375L-8.657,4.859L-9.593,5.794L-9.782,5.604L-8.847,4.669L-9.364,4.153L-10.299,5.088L-10.73,4.657L-10.73,-0.309L-6.452,-4.587L-1.51,-4.587C-0.058,-3.406 2.408,0.277 4.597,-0.025L4.597,6.357Z" style="fill:rgb(255,255,255);fill-rule:nonzero;"/>
            </g>
            <g transform="matrix(1,0,0,1,45.5751,75.1775)">
                <path d="M0,1.387L0.755,0.634L0.755,-1.733L3.389,-4.369L5.612,-4.369L7.964,-2.019L7.964,-0.063L6.793,1.108L5.401,-0.285C6.228,-1.997 3.221,-2.718 3.182,-0.814C3.161,0.04 4.138,0.635 4.884,0.232L6.277,1.624L5.485,2.416L5.485,4.641L4.368,5.756L0,1.387Z" style="fill:rgb(255,255,255);fill-rule:nonzero;"/>
            </g>
            <g transform="matrix(1,0,0,1,57.3308,57.2225)">
                <path d="M0,-18.693L0,0L-0.077,0.077L-1.143,-0.988L-1.143,-4.592L-1.873,-4.592L-1.873,-1.719L-2.606,-2.451L-2.606,-6.057L-3.336,-6.057L-3.336,-3.182L-4.068,-3.914L-4.068,-7.522L-4.799,-7.522L-4.799,-4.644L-5.531,-5.377L-5.531,-8.988L-6.262,-8.988L-6.262,-6.107L-6.994,-6.84L-6.994,-10.452L-7.725,-10.452L-7.725,-7.57L-8.566,-8.412L-8.566,-13.134L-6.162,-15.537L-6.162,-12.686L-0.077,-18.77L0,-18.693Z" style="fill:rgb(255,255,255);fill-rule:nonzero;"/>
            </g>
            <g transform="matrix(1,0,0,1,52.4811,91.4121)">
                <path d="M0,-2.996L2.469,-2.996L0,-5.465L0,-2.996ZM-2.552,-4.423L1.423,-8.398L4.772,-5.049L4.85,-5.127L4.85,5.325L4.772,5.402L-2.552,-1.922L-2.552,-4.423Z" style="fill:rgb(255,255,255);fill-rule:nonzero;"/>
            </g>
            <g transform="matrix(1,0,0,1,53.5389,85.5079)">
                <path d="M0,-9.36L0,-3.162L-3.162,0L-3.162,-3.975L-1.748,-5.387L-1.748,-7.611L0,-9.36Z" style="fill:rgb(255,255,255);fill-rule:nonzero;"/>
            </g>
            <g transform="matrix(1,0,0,1,57.3308,68.1035)">
                <path d="M0,17.149L-0.077,17.226L-3.061,14.243L-3.061,4.752L-5.11,2.705L-3.772,2.705C-2.824,1.842 -1.466,-0.077 0,0.127L0,17.149Z" style="fill:rgb(255,255,255);fill-rule:nonzero;"/>
            </g>
            <g transform="matrix(1,0,0,1,41.2401,35.4885)">
                <path d="M0,0C0.008,0.574 -0.892,0.574 -0.884,0C-0.892,-0.574 0.008,-0.574 0,0" style="fill:rgb(255,255,255);fill-rule:nonzero;"/>
            </g>
            <g transform="matrix(1,0,0,1,38.7859,32.4112)">
                <path d="M0,-0.001C-0.008,-0.574 0.893,-0.574 0.885,-0.001C0.893,0.573 -0.008,0.573 0,-0.001" style="fill:rgb(255,255,255);fill-rule:nonzero;"/>
            </g>
            <g transform="matrix(1,0,0,1,49.4881,74.3638)">
                <path d="M0,0C-0.008,-0.573 0.893,-0.574 0.884,0C0.892,0.574 -0.008,0.574 0,0" style="fill:rgb(255,255,255);fill-rule:nonzero;"/>
            </g>
            <g transform="matrix(1,0,0,1,36.7445,61.1353)">
                <path d="M0,0C-0.008,-0.574 0.892,-0.574 0.884,0C0.892,0.573 -0.008,0.574 0,0" style="fill:rgb(255,255,255);fill-rule:nonzero;"/>
            </g>
        </g>
        <g transform="matrix(0.137131,0,0,0.137131,-16.1325,-31.5362)">
            <g transform="matrix(-2.77262,-3.43475e-16,-3.43475e-16,2.77262,233.45,1109.85)">
                <path d="M-39.77,-32.658L-42.27,-31.622L-42.27,-65.199L-54.56,-77.489L-54.56,-79.401L-37.427,-79.401L-19.597,-97.231L-19.597,-130.366L21.688,-171.651L34.726,-158.613L42.522,-158.613C43.548,-155.784 46.256,-153.754 49.435,-153.754C53.493,-153.754 56.795,-157.055 56.795,-161.113C56.795,-165.171 53.493,-168.473 49.435,-168.473C46.255,-168.473 43.548,-166.442 42.522,-163.613L36.796,-163.613L25.223,-175.187L29.629,-179.593C30.578,-179.146 31.633,-178.889 32.749,-178.889C36.808,-178.889 40.109,-182.19 40.109,-186.248C40.109,-190.306 36.808,-193.608 32.749,-193.608C28.691,-193.608 25.39,-190.306 25.39,-186.248C25.39,-185.132 25.647,-184.077 26.093,-183.128L-24.597,-132.437L-24.597,-99.301L-39.497,-84.401L-54.56,-84.401L-54.56,-97.367C-51.73,-98.393 -49.7,-101.101 -49.7,-104.281C-49.7,-108.338 -53.001,-111.64 -57.06,-111.64C-61.118,-111.64 -64.419,-108.338 -64.419,-104.281C-64.419,-101.101 -62.389,-98.394 -59.56,-97.367L-59.56,-75.418L-47.27,-63.128L-47.27,-29.551L-49.77,-28.515L-49.77,-62.092L-62.06,-74.382L-62.06,-95.797C-64.963,-97.515 -66.919,-100.67 -66.919,-104.281C-66.919,-109.717 -62.496,-114.14 -57.06,-114.14C-51.622,-114.14 -47.2,-109.717 -47.2,-104.281C-47.2,-100.669 -49.156,-97.514 -52.06,-95.797L-52.06,-86.901L-40.534,-86.901L-27.097,-100.337L-27.097,-133.473L23.214,-183.784C23.01,-184.573 22.89,-185.396 22.89,-186.248C22.89,-191.685 27.312,-196.108 32.749,-196.108C38.186,-196.108 42.609,-191.685 42.609,-186.248C42.609,-180.812 38.186,-176.389 32.749,-176.389C31.897,-176.389 31.074,-176.509 30.285,-176.713L28.758,-175.187L37.832,-166.113L40.952,-166.113C42.67,-169.016 45.824,-170.973 49.435,-170.973C54.872,-170.973 59.295,-166.549 59.295,-161.113C59.295,-155.676 54.872,-151.254 49.435,-151.254C45.824,-151.254 42.67,-153.21 40.952,-156.113L33.689,-156.113L21.688,-168.116L-17.097,-129.33L-17.097,-96.195L-36.391,-76.901L-50.436,-76.901L-39.77,-66.235L-39.77,-32.658ZM-59.419,-104.28C-59.419,-105.581 -58.36,-106.639 -57.06,-106.639C-55.758,-106.639 -54.699,-105.581 -54.699,-104.28C-54.699,-102.978 -55.758,-101.92 -57.06,-101.92C-58.36,-101.92 -59.419,-102.978 -59.419,-104.28ZM35.11,-186.248C35.11,-184.947 34.051,-183.889 32.75,-183.889C31.449,-183.889 30.39,-184.947 30.39,-186.248C30.39,-187.549 31.449,-188.608 32.75,-188.608C34.051,-188.608 35.11,-187.549 35.11,-186.248ZM51.795,-161.113C51.795,-159.812 50.736,-158.754 49.435,-158.754C48.134,-158.754 47.075,-159.812 47.075,-161.113C47.075,-162.414 48.134,-163.473 49.435,-163.473C50.736,-163.473 51.795,-162.414 51.795,-161.113Z" style="fill:rgb(255,255,255);"/>
            </g>
            <g transform="matrix(0.0140544,2.77258,2.77258,-0.0140544,1058.87,815.865)">
                <path d="M-16.979,-72.886L-19.479,-73.922L-19.597,-130.366L-4.075,-145.888L8.963,-132.85L16.759,-132.85C17.785,-130.021 20.493,-127.991 23.672,-127.991C27.73,-127.991 31.032,-131.292 31.032,-135.35C31.032,-139.408 27.73,-142.71 23.672,-142.71C20.492,-142.71 17.785,-140.679 16.759,-137.85L11.033,-137.85L-0.54,-149.424L3.866,-153.83C4.815,-153.383 5.87,-153.126 6.986,-153.126C11.045,-153.126 14.346,-156.427 14.346,-160.485C14.346,-164.543 11.045,-167.845 6.986,-167.845C2.928,-167.845 -0.373,-164.543 -0.373,-160.485C-0.373,-159.369 -0.116,-158.314 0.33,-157.365L-24.597,-132.437L-24.479,-75.992L-26.979,-77.028L-27.097,-133.473L-2.549,-158.021C-2.753,-158.81 -2.873,-159.633 -2.873,-160.485C-2.873,-165.922 1.549,-170.345 6.986,-170.345C12.423,-170.345 16.846,-165.922 16.846,-160.485C16.846,-155.049 12.423,-150.626 6.986,-150.626C6.134,-150.626 5.311,-150.746 4.522,-150.95L2.995,-149.424L12.069,-140.35L15.189,-140.35C16.907,-143.253 20.061,-145.21 23.672,-145.21C29.109,-145.21 33.532,-140.786 33.532,-135.35C33.532,-129.913 29.109,-125.491 23.672,-125.491C20.061,-125.491 16.907,-127.447 15.189,-130.35L7.926,-130.35L-4.075,-142.353L-17.097,-129.33L-16.979,-72.886ZM9.346,-160.485C9.346,-159.184 8.287,-158.126 6.986,-158.126C5.685,-158.126 4.626,-159.184 4.626,-160.485C4.626,-161.786 5.685,-162.845 6.986,-162.845C8.287,-162.845 9.346,-161.786 9.346,-160.485ZM26.032,-135.35C26.032,-134.049 24.973,-132.991 23.672,-132.991C22.371,-132.991 21.312,-134.049 21.312,-135.35C21.312,-136.651 22.371,-137.71 23.672,-137.71C24.973,-137.71 26.032,-136.651 26.032,-135.35Z" style="fill:rgb(255,255,255);"/>
            </g>
            <g transform="matrix(4.3715e-16,-2.77262,2.77262,4.3715e-16,349.944,647.033)">
                <path d="M35.529,-65.078L38.029,-62.578L38.029,-32.939L46.122,-24.07L46.049,-10.983C48.953,-9.265 50.909,-6.111 50.909,-2.499C50.909,2.937 46.487,7.36 41.049,7.36C35.613,7.36 31.19,2.937 31.19,-2.499C31.19,-6.11 33.146,-9.265 36.049,-10.983L36.122,-19.927L28.029,-28.796L28.029,-62.578L30.529,-65.078L30.529,-29.833L38.622,-20.963L38.549,-9.413C35.72,-8.386 33.69,-5.679 33.69,-2.499C33.69,1.558 36.991,4.86 41.049,4.86C45.108,4.86 48.409,1.558 48.409,-2.499C48.409,-5.679 46.379,-8.386 43.549,-9.413L43.622,-23.034L35.529,-31.903L35.529,-65.078ZM43.409,-2.499C43.409,-1.198 42.35,-0.14 41.049,-0.14C39.748,-0.14 38.689,-1.198 38.689,-2.499C38.689,-3.801 39.748,-4.859 41.049,-4.859C42.35,-4.859 43.409,-3.801 43.409,-2.499Z" style="fill:rgb(255,255,255);"/>
            </g>
            <g transform="matrix(0.0140544,2.77258,2.77258,-0.0140544,917.807,439.365)">
                <path d="M-1.981,-84.84L-38.679,-47.517L-41.179,-48.554L-2.551,-87.343L-2.551,-87.342L35.095,-87.301C36.813,-90.204 39.968,-92.161 43.579,-92.161C49.016,-92.161 53.439,-87.739 53.439,-82.301C53.439,-76.864 49.016,-72.442 43.579,-72.442C39.968,-72.442 36.814,-74.398 35.096,-77.301L25.344,-77.301L25.513,-25.871L15.513,-21.728L15.344,-77.301L3.028,-77.301L-31.178,-44.411L-33.678,-45.447L2.554,-79.801L17.844,-79.801L18.013,-22.765L23.013,-24.835L22.844,-79.801L36.666,-79.801C37.692,-76.972 40.4,-74.942 43.579,-74.942C47.637,-74.942 50.939,-78.243 50.939,-82.301C50.939,-86.36 47.637,-89.661 43.579,-89.661C40.399,-89.661 37.692,-87.631 36.666,-84.801L-1.981,-84.84ZM45.939,-82.301C45.939,-81 44.88,-79.942 43.58,-79.942C42.278,-79.942 41.219,-81 41.219,-82.301C41.219,-83.603 42.278,-84.661 43.58,-84.661C44.88,-84.661 45.939,-83.603 45.939,-82.301Z" style="fill:rgb(255,255,255);"/>
            </g>
        </g>
    </g>
</svg>
